<?xml version="1.0" standalone="no"?>
<!DOCTYPE svg PUBLIC "-//W3C//DTD SVG 20010904//EN"
 "http://www.w3.org/TR/2001/REC-SVG-20010904/DTD/svg10.dtd">
<svg version="1.0" xmlns="http://www.w3.org/2000/svg"
 width="1024.000000pt" height="1024.000000pt" viewBox="0 0 1024.000000 1024.000000"
 preserveAspectRatio="xMidYMid meet">
<metadata>
Created by potrace 1.11, written by Peter Selinger 2001-2013
</metadata>
<g transform="translate(0.000000,1024.000000) scale(0.100000,-0.100000)"
fill="#000000" stroke="none">
<path d="M2 5123 l-2 -5123 5123 2 5122 3 -5117 2 -5118 3 -3 5118 -2 5117 -3
-5122z"/>
<path d="M1166 9341 c-102 -315 -139 -505 -139 -721 0 -312 33 -417 203 -655
16 -23 31 -59 34 -85 l6 -45 -23 30 c-108 145 -263 288 -439 405 -124 82 -482
270 -493 258 -9 -9 13 -76 92 -278 92 -238 179 -407 272 -530 l79 -105 -47 -6
c-25 -3 -75 -18 -111 -33 -134 -56 -187 -74 -248 -86 -73 -15 -73 -8 -7 -142
50 -101 122 -195 227 -294 86 -82 137 -118 228 -164 l65 -33 -105 -37 c-58
-21 -139 -43 -180 -49 -41 -7 -76 -13 -77 -15 -10 -10 82 -205 127 -270 148
-213 347 -367 535 -412 124 -29 224 -11 354 64 l70 40 75 -234 c42 -128 79
-241 83 -250 3 -9 -32 15 -78 52 -106 85 -247 179 -319 211 -79 36 -162 29
-295 -24 -55 -23 -133 -46 -172 -53 -48 -8 -73 -16 -73 -25 0 -24 69 -175 105
-229 108 -162 274 -315 415 -380 l50 -23 -51 -22 c-29 -11 -80 -26 -115 -33
-35 -6 -64 -16 -64 -21 0 -5 18 -48 41 -96 104 -223 333 -433 563 -515 17 -6
16 -8 -10 -28 -16 -12 -59 -50 -96 -85 -37 -34 -97 -79 -133 -100 -36 -20 -65
-40 -65 -43 0 -3 29 -42 64 -86 141 -179 384 -315 591 -331 68 -5 85 -10 116
-35 19 -15 51 -33 70 -38 21 -6 514 -10 1342 -10 1267 0 1309 -1 1345 -19 64
-33 100 -83 136 -185 6 -16 11 -11 31 32 32 70 67 114 115 146 l39 26 1328 2
1328 3 40 21 c32 17 64 22 160 27 93 4 136 11 194 31 169 59 334 173 433 297
35 44 64 83 65 87 2 4 -25 23 -59 42 -34 19 -89 60 -122 90 -34 31 -78 70 -99
88 -37 32 -38 32 -15 41 94 39 123 54 184 94 94 62 181 143 259 240 67 83 163
264 148 277 -4 4 -35 13 -68 19 -33 7 -81 22 -107 33 l-46 20 62 32 c128 67
256 180 362 321 51 67 125 209 139 266 7 27 6 27 -67 39 -40 7 -126 32 -190
56 -185 69 -236 62 -421 -59 -45 -30 -120 -84 -166 -120 -46 -37 -86 -66 -87
-64 -2 2 30 103 70 225 41 122 76 231 79 242 5 18 10 17 74 -20 169 -100 317
-104 497 -14 137 69 257 175 373 332 73 99 167 302 140 302 -45 2 -177 34
-257 63 l-94 35 54 27 c198 100 382 290 476 490 25 53 44 98 42 100 -2 2 -37
10 -80 18 -42 9 -116 34 -165 56 -81 37 -144 56 -200 63 -21 3 -16 12 52 103
84 111 176 284 253 475 63 158 124 331 117 338 -12 13 -334 -151 -480 -246
-151 -96 -312 -240 -416 -370 -36 -45 -59 -66 -59 -55 1 47 21 96 58 140 133
158 182 326 182 623 0 166 -12 259 -56 435 -41 164 -117 396 -128 392 -29 -10
-211 -503 -256 -692 -54 -226 -73 -479 -45 -605 3 -14 -7 9 -22 50 -38 101
-93 199 -161 290 -53 69 -337 360 -352 360 -3 0 -12 -51 -18 -112 -41 -395
-40 -566 3 -733 59 -231 134 -311 358 -380 48 -14 87 -27 87 -28 0 -2 -18 -68
-39 -147 -21 -80 -45 -171 -52 -203 -6 -31 -14 -56 -16 -54 -1 2 -12 38 -22
79 -31 120 -73 193 -165 284 -70 70 -98 89 -206 143 -75 38 -142 80 -168 105
-41 39 -43 40 -48 18 -4 -12 -8 -22 -10 -22 -2 0 -24 13 -50 30 -26 16 -70 34
-98 40 -36 8 -809 10 -2711 8 l-2660 -3 -60 -29 c-33 -17 -65 -30 -71 -31 -6
0 -31 -18 -54 -39 -23 -21 -76 -54 -118 -72 -208 -95 -339 -224 -398 -392
l-22 -63 -7 38 c-4 20 -25 104 -47 186 -22 82 -36 152 -31 157 4 4 31 13 58
19 85 21 192 71 238 111 84 74 147 239 167 436 12 114 1 361 -24 564 -7 58
-11 108 -9 113 33 59 -283 -248 -358 -348 -72 -95 -119 -178 -155 -272 -21
-54 -31 -72 -27 -48 12 63 6 270 -12 390 -33 220 -107 460 -240 774 -26 61
-51 111 -55 111 -5 0 -25 -49 -44 -109z m210 -335 c111 -321 156 -636 120
-844 -19 -108 -28 -60 104 -562 94 -357 116 -453 135 -580 22 -142 38 -214
171 -733 67 -264 138 -515 171 -610 l57 -162 3 -345 c2 -211 0 -341 -6 -335
-23 25 -114 198 -154 294 -140 333 -484 1361 -527 1571 -46 225 -122 838 -113
906 4 29 -3 69 -21 130 -14 49 -31 116 -37 149 -9 49 -22 74 -72 140 -95 126
-134 229 -157 415 -29 238 0 457 107 815 57 193 46 191 114 26 32 -78 79 -202
105 -275z m7753 257 c46 -148 94 -336 112 -443 18 -107 16 -374 -4 -487 -28
-157 -51 -204 -193 -402 -12 -16 -24 -51 -28 -77 -3 -26 -20 -97 -37 -157 -24
-82 -29 -115 -21 -127 16 -26 -50 -576 -104 -860 -40 -210 -331 -1101 -494
-1513 -70 -178 -114 -267 -195 -397 l-60 -95 -3 311 -2 311 55 137 c78 195
120 337 239 803 131 512 140 547 166 713 24 151 41 224 128 555 34 127 77 292
96 368 l35 137 -16 83 c-37 193 7 527 107 821 33 98 170 446 176 446 2 0 21
-57 43 -127z m-7073 -598 c11 -93 17 -228 17 -355 1 -190 -1 -212 -25 -301
-52 -191 -105 -266 -229 -323 -78 -36 -196 -72 -205 -63 -3 2 -27 87 -53 188
-46 175 -48 188 -39 258 15 131 89 287 200 428 55 70 307 327 314 320 2 -1 11
-70 20 -152z m6529 -210 c107 -139 182 -306 192 -427 5 -59 0 -91 -42 -253
-30 -116 -53 -185 -61 -185 -26 0 -197 61 -239 86 -177 103 -243 386 -201 866
9 102 19 201 23 218 l6 32 134 -134 c74 -73 158 -164 188 -203z m-8045 -47
c230 -122 339 -196 494 -332 85 -76 208 -221 241 -285 33 -65 62 -181 47 -190
-10 -6 -6 -68 12 -200 l5 -33 -82 4 -82 4 -111 76 c-62 42 -151 95 -198 118
-84 41 -88 45 -165 147 -91 121 -166 261 -247 458 -51 127 -124 320 -124 330
0 8 94 -36 210 -97z m9399 -15 c-127 -359 -236 -577 -378 -752 -43 -54 -64
-71 -129 -101 -42 -20 -129 -72 -192 -115 l-115 -78 -84 -5 -84 -5 8 39 c4 22
9 89 10 149 1 65 9 133 18 166 44 150 291 405 546 563 89 55 408 226 423 226
4 0 -6 -39 -23 -87z m-8432 -305 c-3 -8 -6 -5 -6 6 -1 11 2 17 5 13 3 -3 4
-12 1 -19z m7290 -50 c-3 -7 -5 -2 -5 12 0 14 2 19 5 13 2 -7 2 -19 0 -25z
m-947 -225 c113 -46 205 -156 229 -273 9 -41 11 -520 9 -1836 l-3 -1781 -28
-40 c-15 -22 -45 -49 -66 -61 l-39 -22 -1323 0 c-1285 0 -1325 -1 -1355 -19
-48 -30 -102 -87 -127 -137 l-23 -46 -20 44 c-27 60 -69 105 -125 134 l-48 24
-1319 0 -1318 0 -46 29 c-30 19 -52 44 -67 73 l-21 45 2 1804 3 1804 29 62
c30 65 105 147 164 177 91 47 -35 45 2787 43 l2650 -2 55 -22z m171 -73 c20
-16 70 -44 110 -63 223 -102 354 -241 404 -432 17 -69 20 -222 4 -280 -6 -22
-28 -56 -50 -78 l-39 -39 -72 4 c-83 4 -178 43 -241 98 l-37 32 0 268 c0 233
-2 276 -18 328 -18 57 -64 135 -96 161 -17 14 -21 31 -8 31 4 0 24 -13 43 -30z
m-5831 -102 c-41 -76 -50 -151 -50 -450 l0 -257 -29 -21 c-122 -86 -317 -108
-335 -37 -3 12 -14 82 -25 155 -12 74 -23 137 -26 141 -9 15 25 124 58 185 37
70 121 164 186 209 43 30 243 136 248 132 2 -1 -10 -26 -27 -57z m-1325 -83
c81 -39 268 -166 391 -264 l101 -81 12 -103 c7 -56 14 -109 16 -117 3 -11 -21
-32 -78 -67 -133 -83 -208 -99 -308 -67 -27 9 -59 14 -71 11 -29 -8 -121 31
-208 87 -86 56 -229 196 -293 287 -60 84 -122 218 -104 224 6 2 36 8 65 14 29
6 99 31 155 55 56 24 109 46 117 50 8 3 44 4 80 3 48 -2 81 -10 125 -32z
m8888 -49 c59 -26 135 -52 168 -58 32 -7 59 -17 59 -23 0 -25 -83 -181 -127
-238 -68 -89 -178 -196 -252 -246 -85 -58 -202 -111 -228 -105 -12 3 -46 -1
-76 -10 -105 -31 -179 -14 -311 68 -74 46 -78 50 -72 80 3 17 10 69 16 116 12
98 6 90 195 234 120 91 251 176 330 213 80 37 162 28 298 -31z m-8468 -156
l53 0 7 -51 c4 -27 5 -52 3 -54 -2 -2 -35 21 -73 52 -83 66 -85 68 -62 60 10
-4 43 -7 72 -7z m7744 -78 c-80 -64 -89 -62 -75 14 7 33 7 33 69 37 34 2 66 4
71 5 5 1 -25 -24 -65 -56z m-816 -393 c125 -64 256 -62 302 5 8 11 15 15 15 9
0 -16 -62 -276 -102 -427 l-31 -119 -14 54 c-32 128 -126 261 -234 331 l-49
31 0 100 0 99 35 -31 c20 -17 55 -41 78 -52z m-6818 34 c21 -126 48 -265 61
-312 8 -29 13 -55 11 -57 -2 -2 -42 28 -88 66 -46 39 -130 102 -186 140 l-102
68 39 7 c44 8 158 61 210 99 19 14 38 25 42 26 4 0 10 -17 13 -37z m7617 -54
c28 -16 81 -40 118 -53 l68 -23 -79 -52 c-44 -29 -128 -92 -187 -141 l-109
-88 18 64 c10 35 27 124 39 196 29 174 25 164 56 144 13 -10 48 -31 76 -47z
m-6884 -110 c-7 -5 -39 -34 -70 -65 -63 -63 -120 -162 -142 -245 -8 -32 -16
-48 -20 -39 -8 20 -106 408 -106 420 0 6 9 6 26 0 61 -24 188 3 274 58 l45 28
3 -74 c2 -54 -1 -78 -10 -83z m-1072 67 c80 -41 186 -116 312 -220 l119 -99
48 -150 c56 -174 63 -153 -74 -219 -71 -35 -97 -42 -162 -46 -85 -5 -155 8
-237 44 -198 87 -415 315 -503 528 -37 90 -38 91 -16 94 74 8 150 28 215 53
41 17 91 34 111 39 56 14 133 4 187 -24z m8379 -10 c28 -8 88 -28 135 -45 47
-17 111 -33 143 -37 57 -7 58 -7 52 -33 -14 -57 -86 -194 -139 -264 -107 -142
-233 -252 -363 -316 -101 -50 -166 -65 -265 -59 -70 4 -90 10 -175 53 -52 27
-97 54 -100 61 -2 7 16 78 41 157 l46 145 101 83 c175 146 310 236 389 260 39
12 81 10 135 -5z m-1274 -102 c97 -71 167 -172 203 -293 25 -85 23 -109 -25
-294 -13 -49 -52 -67 -143 -67 -105 0 -96 -35 -96 351 0 186 3 339 6 339 4 0
28 -16 55 -36z m-6021 -299 l0 -325 -57 0 c-97 0 -113 16 -145 147 -26 104
-26 113 -13 176 20 98 68 188 137 262 33 36 64 65 69 65 5 0 9 -143 9 -325z
m-60 -344 l65 -6 3 -36 c2 -27 -5 -48 -34 -90 -20 -30 -41 -66 -46 -81 -6 -16
-13 -28 -18 -28 -4 0 -10 12 -13 28 -4 15 -19 75 -35 134 -29 105 -29 107 -8
96 11 -6 50 -14 86 -17z m6240 -17 c0 -14 -63 -240 -69 -246 -3 -4 -19 18 -35
48 -16 30 -49 77 -73 104 -23 26 -43 57 -43 68 0 19 5 20 79 15 48 -4 85 -1
97 5 20 12 44 15 44 6z m-112 -222 l35 -73 -43 -122 c-24 -67 -56 -151 -71
-187 l-28 -65 -3 303 -3 304 39 -44 c21 -23 55 -76 74 -116z m-6883 127 c70
-26 211 -118 340 -222 l100 -80 59 -164 c32 -90 57 -165 55 -167 -29 -21 -113
-66 -125 -66 -8 0 -28 7 -43 15 -78 40 -147 37 -273 -11 l-47 -19 -58 29
c-176 86 -376 292 -459 474 -55 120 -56 116 23 128 37 6 110 28 161 48 155 61
187 65 267 35z m7914 -64 c66 -25 144 -48 175 -51 66 -8 66 -3 6 -131 -85
-180 -278 -381 -447 -467 -65 -32 -71 -32 -152 0 -82 33 -149 35 -215 5 -27
-11 -55 -21 -63 -21 -21 0 -123 62 -123 75 0 5 25 80 56 165 41 113 63 161 82
178 81 68 268 205 327 237 139 78 169 79 354 10z m-7101 -242 l-3 -96 -39 115
c-43 129 -43 136 12 227 l27 46 3 -97 c1 -54 1 -141 0 -195z m-213 -428 c15
-38 29 -76 32 -82 3 -7 -34 12 -82 42 -49 30 -93 55 -99 55 -6 0 16 16 49 35
33 18 63 31 66 27 3 -4 18 -38 34 -77z m-194 21 c40 -20 110 -60 157 -88 82
-52 85 -55 128 -140 24 -49 62 -117 84 -153 39 -64 40 -67 40 -163 l0 -98 -46
-22 c-43 -21 -50 -22 -130 -10 -73 10 -92 10 -128 -3 -39 -14 -47 -14 -94 2
-198 68 -414 262 -523 472 -28 54 -49 101 -46 103 3 3 32 12 66 20 34 7 109
36 169 63 59 27 116 51 127 54 46 13 125 -2 196 -37z m6783 -27 c4 -4 -7 -15
-25 -25 -19 -9 -60 -34 -91 -56 -32 -21 -58 -36 -58 -34 0 7 60 157 66 168 5
7 84 -32 108 -53z m264 26 c29 -9 88 -33 132 -54 43 -21 110 -46 149 -56 l70
-17 -25 -56 c-48 -110 -90 -168 -209 -287 -127 -128 -214 -189 -327 -230 -57
-21 -63 -21 -103 -6 -37 13 -55 14 -128 3 -94 -14 -102 -12 -189 41 -70 42
-67 72 18 202 36 55 86 141 111 192 43 85 51 95 112 136 143 94 250 145 312
146 14 1 49 -6 77 -14z m-564 -725 c-3 -2 -29 -12 -59 -21 l-55 -17 0 54 0 53
59 -32 c33 -17 57 -34 55 -37z m-6074 35 c0 -17 -4 -23 -15 -20 -52 17 -51 16
-25 30 35 20 40 18 40 -10z m-90 -18 l85 -22 5 -285 c5 -250 7 -289 23 -318
l18 -34 -58 7 c-136 15 -263 62 -385 141 -73 48 -205 171 -246 231 l-22 31 55
31 c30 17 95 67 144 111 120 108 160 130 236 129 33 0 98 -10 145 -22z m6439
-26 c20 -11 73 -52 117 -92 43 -40 109 -92 147 -116 37 -24 67 -47 67 -50 0
-14 -86 -117 -136 -162 -103 -95 -249 -176 -378 -211 -70 -19 -227 -32 -240
-19 -3 3 3 23 14 44 18 36 20 60 20 302 0 145 1 263 3 263 1 0 54 13 117 30
137 35 215 38 269 11z"/>
<path d="M6272 7280 c-27 -25 -27 -32 -2 -55 19 -17 19 -18 0 -43 -27 -33 -16
-42 15 -12 31 29 31 34 3 60 l-22 20 24 25 c28 30 13 34 -18 5z"/>
<path d="M6417 7282 c-21 -23 -22 -51 -2 -58 20 -8 19 -23 -2 -46 -22 -25 -8
-36 17 -13 24 22 25 42 3 67 -15 17 -15 19 0 36 10 10 17 22 17 25 0 13 -17 7
-33 -11z"/>
<path d="M6567 7282 c-10 -10 -17 -25 -17 -32 0 -7 7 -22 17 -32 15 -17 15
-19 -2 -38 -10 -11 -15 -23 -12 -27 10 -9 47 27 47 45 0 9 -7 24 -17 34 -15
17 -15 19 0 36 10 10 17 22 17 25 0 13 -17 7 -33 -11z"/>
<path d="M6391 7114 c-24 -10 -33 -23 -43 -57 l-11 -44 -140 -22 c-76 -12
-149 -27 -162 -33 -28 -13 -45 -48 -45 -93 l0 -35 -65 0 c-55 0 -66 -3 -75
-21 -18 -32 -4 -66 27 -73 16 -4 35 -19 45 -36 9 -16 28 -32 42 -36 l26 -6 0
-164 c0 -100 4 -173 11 -188 7 -14 32 -37 56 -53 l45 -28 -129 -5 -128 -5 0
-35 0 -35 580 0 580 0 3 38 3 37 -132 0 -132 0 26 20 c14 11 29 20 34 20 5 0
19 10 31 23 21 22 22 32 22 199 l0 176 28 5 c16 3 34 17 42 32 8 15 29 33 48
40 30 13 33 18 30 52 l-3 38 -72 3 -73 3 0 49 c0 72 -18 82 -199 110 l-151 23
0 27 c0 35 -32 76 -64 82 -13 3 -38 -1 -55 -8z m81 -31 c10 -9 18 -27 18 -40
0 -22 -3 -23 -66 -23 l-66 0 6 28 c13 50 70 69 108 35z m193 -114 c129 -20
175 -36 175 -61 0 -4 -184 -8 -410 -8 -350 0 -410 2 -410 14 0 23 17 29 155
52 171 29 313 30 490 3z m175 -114 l0 -25 -415 0 -415 0 0 25 0 25 415 0 415
0 0 -25z m-850 -70 c0 -24 -3 -25 -60 -25 -57 0 -60 1 -60 25 0 24 3 25 60 25
57 0 60 -1 60 -25z m850 -190 c0 -203 -1 -215 -19 -215 -12 0 -21 11 -27 31
-5 18 -17 37 -27 43 -16 9 -24 4 -56 -31 l-37 -43 -89 0 -90 0 -19 35 c-25 46
-54 55 -78 24 -47 -59 -40 -56 -134 -52 -87 3 -90 5 -123 39 -40 42 -63 41
-76 -4 -5 -19 -16 -32 -26 -32 -14 0 -17 20 -23 158 -4 86 -4 181 0 210 l7 52
408 0 409 0 0 -215z m150 190 c0 -24 -2 -25 -65 -25 -63 0 -65 1 -65 25 0 24
2 25 65 25 63 0 65 -1 65 -25z m-1000 -81 c0 -31 -26 -30 -48 4 -14 21 -13 22
17 22 27 0 31 -4 31 -26z m930 17 c0 -15 -30 -41 -46 -41 -8 0 -14 10 -14 25
0 21 5 25 30 25 17 0 30 -4 30 -9z m-785 -331 c15 -22 26 -42 24 -44 -2 -2
-23 -6 -45 -10 l-41 -6 8 43 c4 23 8 45 9 50 1 17 19 4 45 -33z m323 -5 l22
-45 -50 0 c-28 0 -50 2 -50 5 0 13 41 85 48 85 5 0 18 -20 30 -45z m317 -12
l7 -43 -52 0 -51 0 22 33 c54 78 62 80 74 10z m-391 -138 c18 -13 8 -15 -99
-15 -107 0 -117 2 -99 15 13 10 44 14 99 14 55 0 86 -4 99 -14z m280 0 c18
-13 8 -15 -95 -15 -102 1 -112 2 -95 15 27 20 164 20 190 0z"/>
<path d="M3605 7096 c-17 -7 -36 -20 -44 -29 -8 -10 -28 -17 -50 -17 -91 0
-155 -101 -95 -151 11 -9 14 -43 14 -146 0 -147 8 -177 57 -230 36 -39 30 -47
-42 -58 -72 -10 -109 -28 -141 -69 l-29 -36 -95 0 c-109 0 -140 -13 -140 -59
0 -35 28 -61 66 -61 23 0 36 -10 66 -50 22 -29 32 -50 24 -50 -46 0 -64 -98
-22 -125 34 -23 139 -17 144 8 3 15 -5 17 -62 17 l-66 0 0 30 0 30 165 0 165
0 0 -30 0 -30 -73 0 c-78 0 -89 -4 -80 -26 4 -11 29 -14 105 -14 115 0 138 8
138 50 l0 30 198 0 198 0 22 -30 c26 -34 73 -40 121 -15 69 35 66 191 -4 223
-25 11 -25 14 -25 132 0 119 0 120 23 120 13 0 33 10 45 23 19 21 22 34 22
119 0 128 -11 143 -105 143 -94 0 -105 -15 -105 -140 0 -78 3 -96 21 -119 12
-15 30 -26 45 -26 l24 0 0 -120 c0 -97 -3 -120 -14 -120 -9 0 -21 22 -31 56
-25 87 -75 125 -184 140 -28 4 -54 11 -57 15 -3 5 10 28 30 50 43 51 56 106
56 247 1 78 5 112 15 126 18 23 19 69 4 98 -13 25 -68 48 -114 48 -19 0 -35 5
-35 10 0 17 -63 50 -95 50 -16 -1 -44 -7 -60 -14z m123 -56 c22 -25 34 -30 74
-30 50 0 88 -24 88 -55 0 -8 -9 -23 -20 -32 -16 -14 -20 -30 -20 -76 0 -51 -2
-58 -17 -53 -10 2 -47 8 -81 11 -59 7 -64 6 -60 -11 2 -14 13 -20 39 -22 30
-3 37 -8 48 -37 7 -19 25 -42 42 -52 34 -20 35 -33 10 -90 -35 -76 -141 -133
-211 -113 -115 33 -192 160 -124 205 14 9 32 32 40 50 12 30 19 34 56 37 30 2
43 7 43 18 0 17 -46 20 -122 8 l-43 -6 0 52 c0 40 -5 57 -20 71 -46 42 -9 95
66 95 32 0 48 7 72 30 25 23 41 30 73 30 33 0 46 -6 67 -30z m-241 -307 c-15
-16 -17 -16 -17 -1 0 9 6 18 13 21 20 7 22 -2 4 -20z m678 -78 l0 -100 -60 0
-60 0 -3 89 c-2 49 0 96 2 103 4 10 21 13 63 11 l58 -3 0 -100z m-585 -200
c32 -18 111 -19 155 -1 32 14 45 12 45 -5 0 -18 -91 -41 -144 -37 -56 5 -111
31 -101 48 8 13 15 12 45 -5z m-90 -60 c0 -31 -3 -35 -25 -35 -22 0 -25 4 -25
35 0 31 3 35 25 35 22 0 25 -4 25 -35z m380 -20 c0 -48 -2 -55 -20 -55 -18 0
-20 7 -20 55 0 48 2 55 20 55 18 0 20 -7 20 -55z m-460 15 c0 -28 -2 -30 -41
-30 -49 0 -49 17 2 42 19 10 35 18 37 18 1 0 2 -13 2 -30z m245 -19 c28 0 68
6 90 14 22 8 41 15 43 15 1 0 2 -18 2 -40 0 -39 -1 -40 -35 -40 -22 0 -43 8
-55 20 -16 16 -33 20 -95 20 -67 0 -75 2 -75 19 0 17 3 18 38 5 20 -7 60 -13
87 -13z m324 -100 c13 -63 14 -161 2 -161 -10 0 -14 15 -32 122 -6 37 -17 72
-25 79 -8 6 -14 26 -14 43 l1 31 28 -31 c18 -20 33 -52 40 -83z m-859 29 c0
-13 -7 -20 -19 -20 -22 0 -35 15 -26 30 12 19 45 11 45 -10z m420 5 c0 -31
-32 -91 -68 -127 -35 -37 -38 -38 -111 -38 -64 0 -80 4 -113 26 -35 24 -88
109 -88 141 0 10 40 13 190 13 164 0 190 -2 190 -15z m135 -5 c0 -8 -10 -16
-22 -18 -18 -3 -23 2 -23 18 0 16 5 21 23 18 12 -2 22 -10 22 -18z m223 -27
c5 -10 13 -40 16 -68 4 -27 10 -60 13 -72 l5 -23 -158 0 c-124 1 -163 4 -178
15 -11 8 -29 15 -40 15 -18 0 -18 2 6 28 14 15 31 37 37 50 9 16 21 22 46 22
25 0 39 7 52 25 17 23 24 24 105 25 73 0 89 -3 96 -17z m244 -60 c13 -12 18
-30 18 -68 0 -63 -21 -88 -72 -83 l-33 3 -3 69 c-2 38 -1 75 2 83 7 18 66 16
88 -4z"/>
<path d="M3642 6945 c2 -30 8 -55 13 -55 6 0 11 25 13 55 2 45 0 55 -13 55
-13 0 -15 -10 -13 -55z"/>
<path d="M3522 6908 c2 -39 7 -53 18 -53 11 0 15 12 15 50 0 40 -4 50 -18 53
-16 3 -18 -3 -15 -50z"/>
<path d="M3757 6953 c-10 -9 -8 -76 2 -92 16 -25 31 -1 31 50 0 34 -4 49 -13
49 -8 0 -17 -3 -20 -7z"/>
<path d="M3553 6713 c-7 -2 -13 -12 -13 -22 0 -14 8 -17 40 -15 50 2 61 11 36
30 -20 14 -41 17 -63 7z"/>
<path d="M3693 6713 c-7 -2 -13 -12 -13 -22 0 -14 8 -17 40 -15 50 2 61 11 36
30 -20 14 -41 17 -63 7z"/>
<path d="M3298 6675 c-8 -18 -8 -32 2 -55 9 -22 10 -34 1 -43 -12 -15 -5 -27
16 -27 21 0 32 41 20 74 -7 20 -7 34 1 46 6 10 8 21 5 24 -14 13 -34 5 -45
-19z"/>
<path d="M3211 6597 c-11 -14 -11 -130 0 -141 3 -4 14 3 24 14 17 18 17 25 6
56 -10 27 -10 38 -1 49 12 14 6 35 -9 35 -5 0 -14 -6 -20 -13z"/>
<path d="M6460 5606 c0 -8 -18 -36 -41 -62 -38 -43 -41 -52 -36 -91 3 -31 14
-54 41 -83 47 -52 46 -78 -4 -141 -22 -28 -40 -59 -40 -70 0 -26 37 -25 45 1
3 11 22 38 41 61 27 33 34 49 34 84 0 37 -7 51 -40 90 -22 25 -40 54 -40 65 0
10 18 40 40 66 44 54 53 94 20 94 -11 0 -20 -6 -20 -14z"/>
<path d="M6155 5553 c3 -16 22 -44 41 -63 46 -49 46 -89 -1 -141 -58 -65 -59
-112 -1 -177 18 -20 36 -45 39 -54 4 -10 16 -18 28 -18 15 0 19 4 15 16 -3 9
-6 20 -6 25 0 5 -16 27 -36 48 -46 52 -48 88 -5 137 61 69 63 119 7 183 -18
20 -36 44 -39 54 -4 9 -16 17 -28 17 -18 0 -20 -4 -14 -27z"/>
<path d="M6710 5566 c0 -8 -18 -36 -40 -61 -32 -37 -40 -54 -40 -85 0 -31 8
-48 40 -85 48 -55 52 -91 14 -126 -29 -27 -54 -70 -54 -94 0 -22 38 -19 45 5
3 11 22 38 41 61 49 59 48 108 -6 173 -22 26 -40 56 -40 66 0 10 18 40 40 66
44 54 53 94 20 94 -11 0 -20 -6 -20 -14z"/>
<path d="M3478 5441 c-31 -28 -33 -34 -36 -109 -4 -87 11 -135 48 -147 25 -8
25 -20 3 -48 -17 -21 -25 -22 -162 -19 -203 4 -191 17 -191 -203 0 -105 4
-176 10 -180 7 -4 7 -12 0 -25 -5 -10 -10 -41 -10 -68 0 -51 11 -67 71 -105
25 -15 27 -21 30 -106 4 -99 17 -126 80 -169 28 -20 44 -23 92 -20 70 5 104
28 136 91 l23 47 213 0 213 0 12 -35 c13 -39 68 -92 106 -101 40 -10 114 2
143 23 42 31 73 100 67 150 -5 36 -2 44 15 53 11 6 24 23 30 38 14 36 -10 66
-91 111 l-65 37 -43 115 -44 116 30 42 c40 54 47 90 28 135 -24 57 -65 76
-168 76 -75 0 -91 -3 -108 -20 -18 -18 -33 -20 -140 -20 l-120 0 0 25 c0 18 7
26 25 31 40 10 75 59 75 105 0 39 0 39 40 39 48 0 57 14 35 56 -8 16 -15 36
-15 46 0 9 -14 28 -31 42 -29 25 -36 26 -150 26 -117 0 -119 0 -151 -29z m280
-33 c7 -7 12 -22 12 -35 0 -22 -3 -23 -79 -23 -71 0 -83 -3 -110 -26 -17 -14
-31 -36 -31 -47 0 -32 -15 -49 -36 -45 -16 3 -19 14 -22 82 -2 49 1 83 9 92
15 18 239 20 257 2z m-48 -141 c0 -55 -17 -60 -66 -20 -24 20 -41 40 -38 45 3
4 27 8 55 8 49 0 49 0 49 -33z m-85 -57 c17 -19 17 -21 0 -40 l-18 -20 -23 21
c-19 18 -21 24 -11 40 15 24 29 24 52 -1z m415 -164 c9 -27 29 -59 44 -73 28
-24 28 -24 11 -56 -16 -30 -16 -36 -2 -69 15 -36 15 -36 -17 -67 l-32 -31 -23
71 -23 71 21 15 c26 17 28 69 4 95 -9 10 -29 18 -44 18 -22 0 -29 5 -34 30 -9
41 1 52 43 48 33 -3 37 -7 52 -52z m93 22 c17 -20 24 -78 9 -78 -19 0 -43 28
-57 68 -14 43 -14 43 8 37 12 -4 30 -16 40 -27z m-673 -13 c0 -13 -22 -15
-140 -15 -118 0 -140 2 -140 15 0 13 22 15 140 15 118 0 140 -2 140 -15z m-2
-182 l-3 -118 -135 0 -135 0 -3 118 -3 117 141 0 141 0 -3 -117z m542 83 c0
-8 -7 -17 -16 -20 -23 -9 -24 -8 -24 14 0 13 7 20 20 20 11 0 20 -6 20 -14z
m-176 -66 l130 -5 39 -121 40 -120 -49 -65 c-54 -70 -63 -79 -82 -79 -9 0 -11
7 -7 19 9 28 -14 68 -46 82 -27 11 -29 15 -29 71 0 101 -30 148 -103 157 -40
6 -42 8 -45 45 -3 29 0 36 10 30 7 -5 71 -11 142 -14z m325 -187 l21 -53 -45
0 c-38 0 -47 4 -54 23 -7 18 -3 28 22 54 17 18 32 32 33 30 1 -1 12 -26 23
-54z m-814 -13 c-16 -11 -39 -20 -49 -20 -18 0 -18 1 -1 20 11 12 31 20 49 20
l31 0 -30 -20z m262 6 c14 -14 -13 -20 -102 -24 -131 -6 -183 8 -103 29 35 9
195 5 205 -5z m681 -126 c49 -29 69 -60 37 -60 -8 0 -36 14 -62 30 -36 23 -58
30 -98 30 -59 0 -68 -6 -125 -82 -31 -42 -49 -58 -66 -58 -28 0 -32 21 -8 41
9 7 34 39 55 71 l40 58 87 0 c78 0 92 -3 140 -30z"/>
<path d="M3520 5365 c0 -20 5 -25 25 -25 20 0 25 5 25 25 0 20 -5 25 -25 25
-20 0 -25 -5 -25 -25z"/>
<path d="M3300 4945 c0 -8 -6 -15 -13 -15 -7 0 -25 -13 -40 -28 -21 -21 -27
-38 -27 -70 l0 -42 105 0 105 0 0 33 c0 39 -31 93 -58 101 -11 4 -23 13 -26
21 -7 20 -46 19 -46 0z"/>
<path d="M6023 5413 c-3 -10 -20 -34 -38 -53 -55 -60 -54 -109 4 -176 16 -18
32 -42 36 -54 7 -21 3 -28 -46 -91 -15 -19 -30 -44 -34 -56 -5 -20 -3 -23 19
-23 16 0 26 6 26 15 0 8 16 33 36 54 58 65 55 129 -10 190 -17 16 -26 35 -26
56 0 21 9 40 26 56 26 25 54 70 54 89 0 17 -40 11 -47 -7z"/>
<path d="M3140 5365 c0 -24 3 -25 60 -25 57 0 60 1 60 25 0 24 -3 25 -60 25
-57 0 -60 -1 -60 -25z"/>
<path d="M3180 5280 c0 -18 7 -20 80 -20 73 0 80 2 80 20 0 18 -7 20 -80 20
-73 0 -80 -2 -80 -20z"/>
<path d="M3220 5200 c0 -18 7 -20 80 -20 73 0 80 2 80 20 0 18 -7 20 -80 20
-73 0 -80 -2 -80 -20z"/>
<path d="M6325 5075 c-34 -22 -50 -25 -113 -23 -81 3 -70 9 -149 -85 -13 -16
-41 -31 -68 -38 -55 -14 -90 -53 -100 -109 -4 -23 -22 -61 -42 -87 -19 -25
-40 -59 -46 -76 -5 -16 -18 -38 -29 -49 -36 -36 -17 -94 36 -104 26 -4 38 -14
47 -35 16 -41 90 -103 137 -117 55 -17 749 -17 804 0 47 14 121 76 137 117 9
20 22 31 43 35 17 3 37 11 45 17 20 17 16 75 -6 91 -10 7 -21 27 -25 44 -4 17
-24 51 -45 77 -27 32 -41 60 -45 91 -8 54 -44 93 -95 102 -27 5 -50 22 -93 68
l-57 61 -71 -3 c-61 -2 -77 1 -114 23 -54 31 -100 31 -151 0z m136 -40 c35
-20 58 -25 114 -25 l70 0 50 -54 c36 -39 62 -57 92 -65 54 -15 71 -33 79 -82
4 -22 17 -54 30 -72 40 -54 64 -92 64 -99 0 -5 -250 -8 -555 -8 -530 0 -555 1
-555 18 0 10 16 37 34 59 21 23 40 60 47 89 15 63 33 82 86 96 34 8 55 23 90
64 l47 54 75 0 c63 1 83 5 116 25 50 31 62 31 116 0z m523 -451 c9 -3 16 -12
16 -20 0 -12 -94 -14 -600 -14 -511 0 -600 2 -600 14 0 8 6 17 13 19 18 8
1152 8 1171 1z m-84 -96 c0 -6 -18 -28 -40 -49 -60 -57 -93 -61 -490 -57 -334
3 -346 4 -387 25 -36 20 -83 69 -83 87 0 3 225 6 500 6 371 0 500 -3 500 -12z"/>
<path d="M6240 4955 c0 -8 7 -15 15 -15 8 0 15 7 15 15 0 8 -7 15 -15 15 -8 0
-15 -7 -15 -15z"/>
<path d="M6510 4955 c0 -8 9 -15 20 -15 11 0 20 7 20 15 0 8 -9 15 -20 15 -11
0 -20 -7 -20 -15z"/>
<path d="M6410 4935 c0 -8 7 -15 15 -15 8 0 15 7 15 15 0 8 -7 15 -15 15 -8 0
-15 -7 -15 -15z"/>
<path d="M6170 4875 c0 -20 5 -25 25 -25 20 0 25 5 25 25 0 20 -5 25 -25 25
-20 0 -25 -5 -25 -25z"/>
<path d="M6550 4875 c0 -16 6 -25 15 -25 9 0 15 9 15 25 0 16 -6 25 -15 25 -9
0 -15 -9 -15 -25z"/>
<path d="M6322 4853 c5 -26 38 -29 38 -4 0 15 -6 21 -21 21 -14 0 -19 -5 -17
-17z"/>
<path d="M6682 4853 c2 -12 12 -18 28 -18 36 0 33 29 -3 33 -23 3 -28 0 -25
-15z"/>
<path d="M6070 4789 c0 -26 3 -30 23 -27 16 2 23 11 25 31 3 23 0 27 -22 27
-22 0 -26 -4 -26 -31z"/>
<path d="M6240 4775 c0 -16 6 -25 15 -25 9 0 15 9 15 25 0 16 -6 25 -15 25 -9
0 -15 -9 -15 -25z"/>
<path d="M6460 4775 c0 -20 5 -25 25 -25 20 0 25 5 25 25 0 20 -5 25 -25 25
-20 0 -25 -5 -25 -25z"/>
<path d="M6650 4775 c0 -16 6 -25 15 -25 9 0 15 9 15 25 0 16 -6 25 -15 25 -9
0 -15 -9 -15 -25z"/>
<path d="M6012 4688 c5 -34 38 -37 38 -4 0 20 -5 26 -21 26 -15 0 -20 -5 -17
-22z"/>
<path d="M6340 4684 c0 -33 33 -30 38 4 3 17 -2 22 -17 22 -16 0 -21 -6 -21
-26z"/>
<path d="M6562 4688 c2 -17 10 -23 28 -23 18 0 26 6 28 23 3 19 -1 22 -28 22
-27 0 -31 -3 -28 -22z"/>
<path d="M6820 4684 c0 -33 33 -30 38 4 3 17 -2 22 -17 22 -16 0 -21 -6 -21
-26z"/>
<path d="M4591 3060 c-19 -4 -78 -11 -132 -15 -96 -7 -99 -8 -99 -31 0 -21 5
-24 34 -24 67 0 66 4 66 -453 l0 -408 -25 -24 c-13 -14 -36 -25 -50 -25 -18 0
-25 -5 -25 -20 0 -19 7 -20 195 -20 184 0 195 1 195 19 0 14 -10 20 -39 25
-69 11 -66 -11 -69 513 -1 260 -6 473 -10 472 -4 -1 -22 -5 -41 -9z m39 -465
c0 -311 3 -462 11 -478 12 -26 47 -47 79 -47 11 0 20 -4 20 -10 0 -6 -68 -10
-185 -10 -173 0 -230 9 -150 24 66 13 65 5 65 466 0 455 1 446 -58 458 -58 12
-34 27 55 34 49 4 97 9 108 11 60 12 55 51 55 -448z"/>
<path d="M7960 3060 c-19 -5 -77 -12 -127 -16 -89 -6 -93 -8 -93 -30 0 -20 5
-24 28 -24 63 0 62 6 62 -453 0 -460 3 -440 -65 -453 -25 -4 -35 -11 -35 -25
0 -18 10 -19 190 -19 180 0 190 1 190 19 0 14 -10 21 -35 25 -19 4 -39 15 -45
26 -6 10 -10 92 -10 184 l0 166 33 20 c44 27 116 27 151 -1 l26 -20 0 -169 0
-169 -26 -20 c-15 -12 -35 -21 -45 -21 -12 0 -19 -7 -19 -20 0 -19 7 -20 185
-20 175 0 185 1 185 19 0 14 -10 21 -35 25 -19 4 -38 12 -42 19 -4 7 -10 93
-13 192 -5 168 -7 183 -30 224 -57 102 -216 122 -330 41 -15 -11 -31 -20 -34
-20 -3 0 -6 119 -6 265 0 206 -3 265 -12 264 -7 -1 -29 -5 -48 -9z m40 -280
c0 -148 3 -270 6 -270 3 0 21 12 39 26 46 35 127 64 178 64 52 0 123 -34 151
-73 19 -26 22 -47 26 -215 4 -103 9 -195 14 -204 4 -9 25 -24 47 -32 21 -9 39
-18 39 -21 0 -3 -79 -5 -175 -5 -110 0 -175 4 -175 10 0 6 8 10 19 10 10 0 30
9 45 21 l26 20 0 174 c0 197 -4 209 -76 225 -48 11 -90 1 -135 -31 l-31 -22 4
-169 3 -170 28 -24 c15 -13 37 -24 48 -24 10 0 19 -4 19 -10 0 -6 -67 -10
-180 -10 -168 0 -223 9 -148 24 71 14 68 -9 68 466 0 465 3 443 -56 459 -52
14 -40 31 23 32 32 0 78 4 103 8 25 5 55 9 68 10 l22 1 0 -270z"/>
<path d="M4059 2987 c-82 -55 -65 -181 28 -206 70 -20 153 39 153 106 0 42
-30 90 -65 107 -45 22 -76 20 -116 -7z m107 -2 c24 -10 39 -25 50 -51 20 -47
11 -87 -28 -119 -97 -82 -225 46 -143 144 22 26 35 32 78 40 4 0 23 -6 43 -14z"/>
<path d="M6873 2990 c-40 -24 -53 -48 -53 -98 0 -74 72 -131 143 -111 48 13
87 61 87 105 0 98 -95 154 -177 104z m127 -19 c77 -56 32 -181 -64 -181 -115
1 -147 149 -42 196 36 16 70 11 106 -15z"/>
<path d="M2445 2989 c-77 -5 -196 -6 -263 -3 l-124 6 4 -23 c2 -20 11 -25 54
-32 81 -13 91 -28 99 -152 4 -59 6 -223 3 -365 -5 -292 -7 -304 -75 -315 -65
-11 -73 -15 -73 -39 l0 -23 338 -7 c373 -7 441 -1 550 49 155 71 242 212 242
394 0 140 -42 248 -135 349 -129 139 -293 182 -620 161z m358 -25 c96 -25 163
-61 233 -126 227 -213 199 -592 -55 -726 -120 -65 -170 -70 -658 -64 -200 2
-243 4 -243 16 0 8 15 17 37 21 49 9 89 30 99 52 10 22 18 650 9 711 -9 61
-40 93 -98 99 -26 3 -47 11 -47 17 0 8 95 12 330 14 278 2 340 0 393 -14z"/>
<path d="M2458 2928 l-48 -10 0 -388 c0 -356 1 -388 18 -402 32 -29 96 -41
204 -37 93 4 111 8 171 37 122 61 176 154 185 324 6 119 -9 203 -51 281 -40
75 -121 149 -195 177 -66 26 -210 35 -284 18z m202 -8 c212 -40 331 -216 317
-465 -11 -192 -97 -309 -256 -345 -79 -19 -235 -9 -269 17 l-27 20 -3 381 -2
381 47 6 c27 4 53 8 58 10 21 7 84 5 135 -5z"/>
<path d="M5935 2989 c-77 -5 -193 -6 -257 -3 l-118 6 0 -26 c0 -22 4 -26 30
-26 47 0 99 -26 110 -55 15 -41 13 -704 -3 -735 -14 -29 -47 -47 -99 -55 -31
-5 -38 -10 -38 -29 l0 -23 338 -6 c389 -8 448 -2 565 53 269 127 315 523 88
749 -133 132 -293 171 -616 150z m382 -32 c155 -45 256 -128 322 -267 36 -74
36 -76 36 -205 0 -125 -1 -133 -31 -195 -56 -118 -168 -201 -309 -230 -66 -14
-151 -16 -517 -12 -208 2 -248 4 -248 16 0 10 16 17 46 22 25 3 58 17 72 29
l27 23 3 366 c2 311 0 370 -12 395 -15 28 -50 46 -105 53 -14 2 -26 8 -28 13
-2 6 114 11 330 13 324 2 336 2 414 -21z"/>
<path d="M5995 2936 c-5 -3 -27 -7 -47 -11 l-38 -6 0 -394 0 -394 33 -18 c26
-15 56 -18 162 -18 119 0 134 2 185 26 148 70 219 235 191 446 -20 160 -91
267 -215 328 -64 32 -83 37 -167 41 -52 2 -98 2 -104 0z m185 -22 c79 -18 135
-50 183 -103 86 -96 123 -233 105 -393 -15 -142 -76 -235 -187 -287 -51 -24
-67 -26 -176 -26 -96 0 -127 4 -152 18 l-33 18 0 384 0 384 38 6 c20 4 44 8
52 10 38 8 111 3 170 -11z"/>
<path d="M4155 2610 c-22 -5 -79 -11 -127 -15 -84 -7 -88 -9 -88 -31 0 -21 5
-24 34 -24 61 0 66 -19 66 -225 0 -203 -5 -219 -65 -231 -25 -4 -35 -11 -35
-25 0 -18 10 -19 195 -19 184 0 195 1 195 19 0 14 -10 20 -40 25 -70 11 -73
21 -69 296 4 209 2 240 -11 239 -8 -1 -33 -5 -55 -9z m74 -513 c7 -9 28 -19
47 -23 79 -15 22 -24 -146 -24 -169 0 -225 9 -145 24 61 12 65 28 65 239 0
108 -4 196 -10 207 -6 11 -28 24 -50 30 -22 6 -40 14 -40 19 0 4 42 11 93 15
50 4 108 10 127 14 l35 8 5 -247 c4 -186 8 -250 19 -262z"/>
<path d="M6970 2610 c-19 -5 -77 -12 -127 -15 -89 -7 -93 -8 -93 -31 0 -21 5
-24 33 -24 63 0 67 -13 67 -227 0 -211 -2 -216 -68 -229 -22 -5 -32 -12 -32
-25 0 -18 11 -19 195 -19 179 0 195 1 195 18 0 12 -15 22 -48 32 l-47 15 -3
258 c-3 286 4 265 -72 247z m52 -236 c-3 -155 0 -235 8 -254 12 -28 46 -50 80
-50 11 0 20 -4 20 -10 0 -6 -68 -10 -185 -10 -172 0 -229 9 -153 24 67 13 68
17 68 239 0 172 -2 203 -17 219 -9 10 -24 18 -34 18 -24 0 -49 10 -49 21 0 5
24 9 53 10 28 0 75 4 102 9 28 4 64 8 80 9 l30 1 -3 -226z"/>
<path d="M3418 2596 c-61 -22 -89 -45 -110 -93 -11 -24 -17 -47 -14 -50 5 -6
171 -42 194 -43 8 0 12 16 12 48 0 56 20 82 63 82 40 0 57 -33 57 -112 0 -48
-4 -68 -12 -68 -69 -1 -196 -23 -237 -41 -117 -50 -157 -170 -83 -245 69 -69
172 -72 309 -8 l52 25 46 -36 c31 -23 57 -35 79 -35 37 0 105 41 156 94 31 33
33 37 18 52 -15 15 -19 15 -46 -5 -40 -28 -68 -27 -88 5 -15 21 -16 43 -11
147 5 79 3 136 -4 162 -24 86 -120 135 -263 135 -44 -1 -98 -7 -118 -14z m269
-21 c24 -9 56 -33 73 -51 l30 -35 0 -157 c0 -126 3 -162 16 -180 18 -26 53
-28 95 -6 17 8 34 12 37 9 11 -11 -105 -113 -136 -120 -33 -7 -80 11 -124 46
l-27 22 -60 -27 c-73 -33 -159 -51 -203 -42 -123 23 -167 147 -81 231 46 45
116 67 233 74 l95 6 -2 78 c-2 100 -18 127 -72 127 -48 0 -69 -22 -77 -82 l-6
-45 -82 17 c-91 19 -101 31 -66 80 23 32 65 58 115 71 48 13 195 3 242 -16z"/>
<path d="M3516 2300 c-78 -24 -103 -110 -49 -165 25 -24 33 -27 80 -23 75 7
83 16 83 108 0 72 -2 78 -22 84 -30 8 -56 6 -92 -4z m104 -79 c0 -83 -11 -96
-82 -96 -58 0 -88 27 -88 79 0 58 38 85 118 86 l52 0 0 -69z"/>
<path d="M7310 2595 c-80 -36 -117 -101 -105 -182 9 -63 56 -112 147 -152 120
-52 181 -85 191 -102 17 -28 0 -67 -33 -74 -80 -18 -180 34 -240 122 -25 38
-41 52 -59 53 -23 0 -23 -2 -17 -46 3 -26 6 -69 6 -95 l0 -48 73 -23 c103 -32
264 -33 324 -1 54 29 85 74 91 133 9 95 -50 158 -199 215 -104 40 -134 64
-134 105 0 28 5 36 26 44 46 16 94 -1 153 -55 30 -28 58 -59 61 -70 4 -13 15
-19 34 -19 l27 0 -4 73 c-5 118 -2 114 -79 121 -181 16 -228 17 -263 1z m177
-4 c28 -6 71 -11 96 -12 43 -3 45 -4 51 -38 10 -64 7 -131 -6 -130 -7 0 -27
19 -43 42 -44 61 -117 107 -169 107 -54 0 -79 -18 -79 -58 0 -44 24 -66 112
-103 164 -68 212 -104 226 -170 28 -124 -83 -210 -254 -195 -83 7 -186 32
-200 50 -14 16 -17 159 -4 163 6 2 20 -11 32 -30 76 -123 232 -187 297 -122
26 26 26 52 1 83 -14 17 -85 52 -164 82 -121 44 -184 126 -164 213 23 100 124
145 268 118z"/>
<path d="M4734 2591 c-2 -2 -4 -12 -4 -21 0 -11 14 -21 40 -29 24 -7 49 -25
65 -45 28 -37 245 -504 245 -528 0 -8 -17 -41 -39 -74 -62 -95 -114 -134 -161
-119 -16 5 -19 15 -19 54 2 53 -14 84 -48 100 -98 45 -183 -69 -123 -166 41
-67 144 -91 246 -56 102 35 173 138 392 573 104 207 149 270 192 270 14 0 20
7 20 23 0 22 -1 22 -145 22 -144 0 -145 0 -145 -22 0 -15 6 -23 18 -23 10 0
28 -7 41 -16 20 -14 23 -23 18 -58 -5 -50 -127 -330 -139 -318 -15 15 -117
251 -124 287 -10 55 1 82 41 97 26 9 35 18 33 31 -3 17 -18 18 -201 20 -109 1
-201 0 -203 -2z m396 -15 c0 -2 -16 -13 -35 -25 -56 -33 -61 -55 -32 -142 26
-76 126 -294 132 -287 2 1 33 70 70 152 79 176 92 243 54 270 -13 9 -31 16
-41 16 -10 0 -18 5 -18 10 0 6 52 10 135 10 83 0 135 -4 135 -10 0 -5 -8 -10
-18 -10 -44 0 -83 -56 -195 -275 -247 -483 -307 -563 -441 -581 -64 -9 -112 3
-151 37 -85 75 -31 212 71 179 42 -14 54 -35 54 -92 0 -52 13 -68 55 -68 43 0
95 46 150 134 l45 73 -117 259 c-123 270 -153 316 -212 329 -75 16 -19 25 164
25 107 0 195 -2 195 -4z"/>
</g>
</svg>
